<svg width="104" height="78" viewBox="0 0 104 78" fill="none" xmlns="http://www.w3.org/2000/svg">
<g clip-path="url(#clip0_388_1441)">
<path d="M96.4335 31.2708L26.0171 31.1604L44.0667 13.7805C45.5207 12.3604 46.3928 10.3998 46.4985 8.31405C46.6041 6.22829 45.935 4.1811 44.6327 2.60606C43.988 1.83136 43.2028 1.20024 42.3232 0.749805C41.4437 0.299374 40.4875 0.0387212 39.511 -0.016831C38.5344 -0.0723831 37.5572 0.0782868 36.6367 0.426321C35.7162 0.774356 34.8711 1.31273 34.1509 2.0098L2.41215 32.6842C1.6056 33.4806 0.972443 34.4517 0.556265 35.5306C0.140087 36.6095 -0.0492286 37.7706 0.00134975 38.9339C-0.0549598 40.0992 0.129568 41.2636 0.542183 42.3464C0.954799 43.4293 1.58566 44.4048 2.39119 45.2057L34.1719 75.9685C34.888 76.671 35.7306 77.2151 36.6498 77.5685C37.569 77.9219 38.5462 78.0775 39.5235 78.026C40.5008 77.9746 41.4584 77.7171 42.3396 77.2688C43.2208 76.8206 44.0077 76.1907 44.6536 75.4164C45.9481 73.833 46.6064 71.7809 46.489 69.6949C46.3716 67.6089 45.4877 65.6531 44.0247 64.242L26.2057 46.9724L96.4335 47.0828C98.424 47.0828 100.333 46.2499 101.74 44.7672C103.148 43.2846 103.938 41.2736 103.938 39.1768C103.938 37.08 103.148 35.0691 101.74 33.5865C100.333 32.1038 98.424 31.2708 96.4335 31.2708Z" fill="white"/>
</g>
<defs>
<clipPath id="clip0_388_1441">
<rect width="104" height="78" fill="white"/>
</clipPath>
</defs>
</svg>
