<svg width="200" height="200" viewBox="0 0 200 200" fill="none" xmlns="http://www.w3.org/2000/svg">
<g clip-path="url(#clip0_393_1738)">
<path d="M100 9.95689e-07C80.2185 -0.00278946 60.8804 5.85974 44.4313 16.8462C27.9822 27.8326 15.1609 43.4495 7.58895 61.7219C0.0169542 79.9942 -1.96567 100.101 1.8918 119.5C5.74927 138.899 15.2736 156.719 29.2602 170.706C43.2469 184.692 61.0677 194.218 80.4689 198.077C99.8701 201.937 119.98 199.958 138.256 192.389C156.532 184.821 172.153 172.004 183.144 155.558C194.134 139.113 200 119.779 200 100C200 73.4808 189.465 48.0475 170.712 29.2943C151.958 10.5411 126.523 0.00374242 100 9.95689e-07ZM182.687 64.3905C164.71 43.3973 126.4 39.1507 108.819 38.3324H110.103C110.103 38.3324 119.317 24.8307 120.234 12.3025C133.998 15.485 146.821 21.8572 157.669 30.905C168.517 39.9527 177.086 51.4229 182.687 64.3905ZM100.183 151.58C20.8551 150.071 18.8232 115.039 18.8232 115.039C29.5047 117.861 52.1095 120.965 100.042 121.092C147.975 121.219 170.594 118.27 181.501 115.364C181.078 118.792 175.166 150.155 100.183 151.594V151.58ZM99.9294 48.8854C171.892 50.2963 180.231 79.2184 181.163 84.5796C170.171 81.6874 147.411 78.6258 100.254 78.4989C51.8696 78.3719 29.2366 81.6874 18.6539 84.7771C19.4158 79.9661 27.0354 50.2822 99.9294 48.8854ZM79.921 12.3025C80.824 24.8307 90.0522 38.3606 90.0522 38.3606H90.9835C73.6278 39.1507 35.8544 43.2985 17.6097 63.7556C23.2727 50.921 31.855 39.5858 42.6729 30.653C53.4908 21.7202 66.2454 15.4365 79.921 12.3025ZM17.8355 136.682C35.6286 156.687 72.0615 161.131 89.9534 162.077C88.8952 163.671 80.9228 176.044 79.9774 187.669C66.379 184.556 53.6882 178.33 42.9031 169.483C32.1179 160.636 23.5323 149.408 17.8214 136.682H17.8355ZM120.192 187.641C119.232 176.058 111.316 163.742 110.23 162.105C127.938 161.174 163.976 156.814 181.939 137.232C176.203 149.807 167.651 160.894 156.944 169.635C146.236 178.376 133.662 184.537 120.192 187.641Z" fill="#10324D"/>
</g>
<defs>
<clipPath id="clip0_393_1738">
<rect width="200" height="200" fill="white"/>
</clipPath>
</defs>
</svg>
