<svg width="24" height="24" viewBox="0 0 24 24" fill="none" xmlns="http://www.w3.org/2000/svg">
<g clip-path="url(#clip0_50_4)">
<path d="M10.4882 1.91893e-06C8.41183 -0.00125289 6.38178 0.612921 4.65478 1.76484C2.92777 2.91676 1.58139 4.55467 0.785949 6.47139C-0.0094949 8.38812 -0.21827 10.4976 0.18603 12.5329C0.59033 14.5682 1.58954 16.438 3.05728 17.9057C4.52501 19.3734 6.39534 20.3731 8.43167 20.7784C10.468 21.1837 12.5789 20.9763 14.4973 20.1825C16.4156 19.3887 18.0554 18.0442 19.209 16.3189C20.3627 14.5937 20.9785 12.5653 20.9785 10.4902C20.9791 9.113 20.7081 7.74917 20.1812 6.4766C19.6543 5.20403 18.8817 4.04766 17.9076 3.07352C16.9334 2.09939 15.7768 1.32657 14.5038 0.799212C13.2307 0.271853 11.8662 0.000279528 10.4882 1.91893e-06ZM10.4882 19.5045C5.2726 19.5045 1.49159 15.73 1.49159 10.5135C1.49159 5.29692 5.27683 1.51824 10.4924 1.51824C15.7079 1.51824 19.4889 5.29692 19.4889 10.5135C19.4889 15.73 15.7079 19.5045 10.4924 19.5045H10.4882Z" fill="#10324D"/>
<path d="M17.3173 17.2777L17.2724 17.3225C16.9906 17.6041 16.9906 18.0607 17.2724 18.3423L22.7243 23.7908C23.006 24.0724 23.4629 24.0724 23.7446 23.7908L23.7895 23.7459C24.0713 23.4643 24.0713 23.0078 23.7895 22.7262L18.3376 17.2777C18.0559 16.9961 17.599 16.9961 17.3173 17.2777Z" fill="#10324D"/>
</g>
<defs>
<clipPath id="clip0_50_4">
<rect width="24" height="24" fill="white"/>
</clipPath>
</defs>
</svg>
