<svg width="24" height="24" viewBox="0 0 24 24" fill="none" xmlns="http://www.w3.org/2000/svg">
<g clip-path="url(#clip0_458_3270)">
<path d="M22.0634 0H1.93655C0.871617 0 0 0.870005 0 1.93433V22.0657C0 23.1353 0.871617 24 1.93655 24H22.0634C23.1284 24 24 23.1282 24 22.0657V1.93433C24 0.870005 23.1284 0 22.0634 0ZM22.8401 21.4809C22.8401 22.4383 22.579 22.7289 21.6192 22.7289L2.41645 22.7431C1.45665 22.7431 1.20399 22.4222 1.20399 21.4649L1.18703 2.53335C1.18703 1.57421 1.42443 1.2854 2.38423 1.2854L21.6327 1.25152C22.5925 1.25152 22.8452 1.5546 22.8452 2.51374L22.8401 21.4809Z" fill="white"/>
<path d="M18.6753 5.04175H5.37215C5.06215 5.04175 4.81085 5.30595 4.81085 5.63185V5.72812C4.81085 6.05403 5.06215 6.31823 5.37215 6.31823H18.6753C18.9853 6.31823 19.2366 6.05403 19.2366 5.72812V5.63185C19.2366 5.30595 18.9853 5.04175 18.6753 5.04175Z" fill="white"/>
<path d="M18.6821 17.6854H5.37892C5.06893 17.6854 4.81763 17.9496 4.81763 18.2755V18.3718C4.81763 18.6977 5.06893 18.9619 5.37892 18.9619H18.6821C18.9921 18.9619 19.2434 18.6977 19.2434 18.3718V18.2755C19.2434 17.9496 18.9921 17.6854 18.6821 17.6854Z" fill="white"/>
<path d="M18.6753 11.3655H5.37215C5.06215 11.3655 4.81085 11.6297 4.81085 11.9556V12.0519C4.81085 12.3778 5.06215 12.642 5.37215 12.642H18.6753C18.9853 12.642 19.2366 12.3778 19.2366 12.0519V11.9556C19.2366 11.6297 18.9853 11.3655 18.6753 11.3655Z" fill="white"/>
</g>
<defs>
<clipPath id="clip0_458_3270">
<rect width="24" height="24" fill="white"/>
</clipPath>
</defs>
</svg>
