<svg width="17" height="11" viewBox="0 0 17 11" fill="none" xmlns="http://www.w3.org/2000/svg">
<path d="M16.768 0.253249C16.6977 0.173656 16.6113 0.10991 16.5145 0.0662457C16.4177 0.022582 16.3126 0 16.2064 0C16.1001 0 15.9951 0.022582 15.8983 0.0662457C15.8015 0.10991 15.715 0.173656 15.6448 0.253249L8.49721 8.1026L1.34485 0.267634C1.27504 0.188949 1.18931 0.125955 1.09332 0.0828135C0.997337 0.0396718 0.89328 0.0173642 0.788025 0.0173642C0.682769 0.0173642 0.578712 0.0396718 0.482726 0.0828135C0.386739 0.125955 0.301009 0.188949 0.231197 0.267634C0.0821291 0.438365 0 0.657244 0 0.883787C0 1.11033 0.0821291 1.32921 0.231197 1.49994L7.93558 9.94387C8.02333 10.0443 8.13634 10.1195 8.26294 10.1616C8.38953 10.2038 8.5251 10.2114 8.65561 10.1836C8.81505 10.1491 8.95951 10.0652 9.06843 9.94387L16.768 1.48555C16.9176 1.31505 17 1.09609 17 0.869402C17 0.642718 16.9176 0.423753 16.768 0.253249Z" fill="white"/>
</svg>
