<svg width="24" height="24" viewBox="0 0 24 24" fill="none" xmlns="http://www.w3.org/2000/svg">
<g clip-path="url(#clip0_138_1678)">
<path d="M12 1.19483e-07C9.62619 -0.000334735 7.30562 0.703169 5.33173 2.02154C3.35784 3.33992 1.81929 5.21394 0.910648 7.40663C0.00200857 9.59931 -0.235907 12.0122 0.22699 14.34C0.689887 16.6679 1.8328 18.8063 3.5112 20.4847C5.1896 22.1631 7.3281 23.3061 9.65624 23.7693C11.9844 24.2325 14.3976 23.9949 16.5907 23.0867C18.7839 22.1785 20.6584 20.6404 21.9772 18.667C23.296 16.6936 24 14.3734 24 12C24 8.8177 22.7357 5.76571 20.4854 3.51532C18.235 1.26493 15.1827 0.00044909 12 1.19483e-07ZM21.9224 7.72686C19.7652 5.20768 15.168 4.69808 13.0583 4.59989H13.2123C13.2123 4.59989 14.318 2.97968 14.4281 1.4763C16.0797 1.85821 17.6185 2.62286 18.9202 3.7086C20.222 4.79433 21.2504 6.17075 21.9224 7.72686ZM12.022 18.1896C2.50258 18.0085 2.25876 13.8047 2.25876 13.8047C3.54054 14.1433 6.25311 14.5158 12.0051 14.531C17.757 14.5463 20.4713 14.1924 21.7801 13.8437C21.7293 14.2551 21.0199 18.0186 12.022 18.1913V18.1896ZM11.9915 5.86625C20.627 6.03555 21.6277 9.50621 21.7395 10.1495C20.4205 9.80248 17.6893 9.4351 12.0305 9.41987C6.22433 9.40463 3.50837 9.80248 2.23844 10.1733C2.32987 9.59594 3.24422 6.03386 11.9915 5.86625ZM9.59049 1.4763C9.69886 2.97968 10.8062 4.60327 10.8062 4.60327H10.918C8.83531 4.69808 4.3025 5.19582 2.11314 7.65068C2.7927 6.11052 3.82257 4.7503 5.12072 3.67836C6.41887 2.60642 7.94943 1.85238 9.59049 1.4763ZM2.14023 16.4018C4.27541 18.8025 8.64736 19.3358 10.7944 19.4492C10.6674 19.6405 9.71071 21.1253 9.59726 22.5203C7.96545 22.1467 6.44256 21.3997 5.14834 20.338C3.85412 19.2763 2.82385 17.9289 2.13854 16.4018H2.14023ZM14.423 22.5169C14.3079 21.127 13.358 19.649 13.2276 19.4526C15.3526 19.3409 19.6771 18.8177 21.8326 16.4678C21.1443 17.9768 20.1181 19.3073 18.8332 20.3562C17.5484 21.4051 16.0394 22.1444 14.423 22.5169Z" fill="#10324D"/>
</g>
<defs>
<clipPath id="clip0_138_1678">
<rect width="24" height="24" fill="white"/>
</clipPath>
</defs>
</svg>
