<svg width="24" height="24" viewBox="0 0 24 24" fill="none" xmlns="http://www.w3.org/2000/svg">
<g clip-path="url(#clip0_138_1669)">
<path d="M12 4.57764e-05C9.62656 4.58e-05 7.30641 0.703926 5.33299 2.02267C3.35956 3.34142 1.82149 5.21579 0.913289 7.40876C0.00508719 9.60173 -0.232454 12.0148 0.230706 14.3428C0.693866 16.6707 1.83692 18.8091 3.51532 20.4874C5.19372 22.1657 7.33208 23.3085 9.65996 23.7714C11.9878 24.2342 14.4007 23.9963 16.5934 23.0877C18.7861 22.1792 20.6601 20.6407 21.9785 18.667C23.2968 16.6932 24.0003 14.3728 24 11.9992C23.9996 8.81667 22.7351 5.76464 20.4847 3.51441C18.2343 1.26418 15.1823 4.57447e-05 12 4.57764e-05ZM19.1624 15.5637L16.7919 10.7732L17.2999 5.12924L20.495 5.26132C21.5014 6.52568 22.2111 7.99995 22.5716 9.57531C22.9321 11.1507 22.9341 12.7869 22.5777 14.3631L19.1624 15.5637ZM14.4044 15.5637H9.58206L7.22506 10.7749L11.9915 7.18328L16.7631 10.7766L14.4044 15.5637ZM16.6141 2.20141L17.2711 5.114L11.9915 7.18159L6.71201 5.1123L7.36391 2.20141C8.81059 1.52006 10.3899 1.16675 11.989 1.16675C13.5881 1.16675 15.1674 1.52006 16.6141 2.20141ZM3.51856 5.26132L6.69677 5.12924L7.20475 10.7766L4.81728 15.579L1.43926 14.3936C1.07656 12.813 1.07516 11.171 1.43518 9.58979C1.79519 8.00859 2.50734 6.52903 3.51856 5.26132ZM3.63031 18.8505L4.81558 15.6078H9.58375L11.9729 20.3492L9.66841 22.5505C7.29819 22.0282 5.17191 20.7253 3.63031 18.8505ZM14.2977 22.5573L12.022 20.3509L14.4332 15.6094H19.1336L20.3426 18.8912C18.7931 20.7568 16.6619 22.0479 14.291 22.5573H14.2977Z" fill="#F29200"/>
</g>
<defs>
<clipPath id="clip0_138_1669">
<rect width="24" height="24" fill="white"/>
</clipPath>
</defs>
</svg>
