<svg width="24" height="24" viewBox="0 0 24 24" fill="none" xmlns="http://www.w3.org/2000/svg">
<g clip-path="url(#clip0_138_1660)">
<path d="M12 6.11546e-05C9.62619 -0.0002737 7.30562 0.70323 5.33173 2.0216C3.35784 3.33998 1.81929 5.214 0.910648 7.40669C0.00200857 9.59937 -0.235907 12.0122 0.22699 14.3401C0.689887 16.668 1.8328 18.8063 3.5112 20.4847C5.1896 22.1631 7.3281 23.3062 9.65624 23.7694C11.9844 24.2325 14.3976 23.995 16.5907 23.0868C18.7839 22.1786 20.6584 20.6405 21.9772 18.6671C23.296 16.6937 24 14.3735 24 12.0001C24 8.81776 22.7357 5.76577 20.4854 3.51538C18.235 1.26499 15.1827 0.000510125 12 6.11546e-05ZM17.4641 19.0209L14.6313 14.7884L15.4339 11.5396L19.8448 9.99724L22.8029 12.0051C22.8029 14.1343 22.1706 16.2155 20.986 17.9848L17.4641 19.0209ZM20.4645 5.29408L19.4164 8.90695L15.0139 10.4459L12.5977 8.77489V4.31722L15.6049 1.82512L15.5642 1.80649C17.4946 2.48241 19.1937 3.6917 20.4645 5.29408ZM8.38829 1.82342L11.4226 4.29352V8.76643L9.05204 10.3765L4.60898 8.8206L3.59303 5.22805C4.84645 3.67232 6.50617 2.49392 8.38829 1.82342ZM3.04781 18.0373C1.86068 16.2846 1.21853 14.22 1.20218 12.1033L4.28557 9.95322L8.56269 11.4498L9.40932 14.8121L6.5816 19.0328L3.04781 18.0373ZM9.62774 22.5272L7.55522 19.688L10.2813 15.6248H13.7728L16.482 19.6761L14.4078 22.517C12.8346 22.8759 11.2009 22.8759 9.62774 22.517V22.5272Z" fill="#10324D"/>
</g>
<defs>
<clipPath id="clip0_138_1660">
<rect width="24" height="24" fill="white"/>
</clipPath>
</defs>
</svg>
