<svg width="348" height="348" viewBox="0 0 348 348" fill="none" xmlns="http://www.w3.org/2000/svg">
<g clip-path="url(#clip0_135_968)">
<path d="M174 1.7325e-06C139.58 -0.00485366 105.932 10.1959 77.3103 29.3124C48.6889 48.4288 26.3799 75.6022 13.2046 107.396C0.0293684 139.19 -3.4204 174.176 3.2916 207.931C10.0036 241.685 26.5759 272.691 50.9127 297.028C75.2495 321.365 106.258 337.939 140.016 344.655C173.774 351.371 208.766 347.926 240.566 334.757C272.366 321.588 299.547 299.286 318.67 270.672C337.793 242.057 348 208.415 348 174C348 127.857 329.669 83.6027 297.038 50.9721C264.407 18.3415 220.15 0.00651181 174 1.7325e-06ZM317.875 112.04C286.595 75.5113 219.937 68.1222 189.345 66.6984H191.579C191.579 66.6984 207.612 43.2054 209.207 21.4063C233.156 26.944 255.468 38.0315 274.344 53.7746C293.219 69.5178 308.13 89.4759 317.875 112.04ZM174.319 263.749C36.2877 261.123 32.7522 200.169 32.7522 200.169C51.3381 205.078 90.6704 210.479 174.074 210.7C257.477 210.921 296.834 205.79 315.812 200.733C315.076 206.699 304.788 261.27 174.319 263.774V263.749ZM173.877 85.0607C299.092 87.5155 313.603 137.84 315.223 147.168C296.097 142.136 256.495 136.809 174.442 136.588C90.253 136.367 50.8716 142.136 32.4576 147.512C33.7834 139.141 47.0415 87.491 173.877 85.0607ZM139.062 21.4063C140.634 43.2054 156.691 66.7475 156.691 66.7475H158.311C128.112 68.1222 62.3865 75.3394 30.6408 110.935C40.4944 88.6025 55.4275 68.8793 74.2507 53.3362C93.0738 37.7931 115.267 26.8595 139.062 21.4063ZM31.0336 237.826C61.9937 272.636 125.387 280.369 156.519 282.014C154.677 284.788 140.806 306.317 139.161 326.545C115.499 321.127 93.4174 310.295 74.6512 294.901C55.885 279.507 40.9461 259.97 31.009 237.826H31.0336ZM209.134 326.495C207.464 306.341 193.691 284.91 191.8 282.063C222.613 280.442 285.319 272.857 316.573 238.784C306.593 260.664 291.712 279.955 273.082 295.165C254.451 310.374 232.571 321.094 209.134 326.495Z" fill="#F29200"/>
</g>
<defs>
<clipPath id="clip0_135_968">
<rect width="348" height="348" fill="white"/>
</clipPath>
</defs>
</svg>
