<svg width="348" height="348" viewBox="0 0 348 348" fill="none" xmlns="http://www.w3.org/2000/svg">
<g clip-path="url(#clip0_135_973)">
<path d="M174 1.7325e-06C139.58 -0.00485366 105.932 10.1959 77.3106 29.3124C48.6891 48.4288 26.3802 75.6022 13.2049 107.396C0.0296125 139.19 -3.42016 174.176 3.29185 207.931C10.0038 241.685 26.5761 272.691 50.9129 297.028C75.2497 321.365 106.258 337.939 140.016 344.655C173.774 351.371 208.766 347.926 240.566 334.757C272.366 321.588 299.547 299.286 318.67 270.672C337.793 242.057 348 208.415 348 174C348 127.857 329.669 83.6027 297.038 50.9721C264.408 18.3415 220.15 0.00651181 174 1.7325e-06ZM330.396 165.31L244.194 165.138C247.312 102.22 279.893 104.233 279.893 104.233C294.108 103.742 295.803 83.2441 295.95 75.7568C316.566 101.243 328.62 132.579 330.396 165.31ZM279.525 289.673C252.867 314.018 218.596 328.375 182.544 330.301V182.543H224.283C226.443 259.674 260.914 261.098 260.914 261.098C260.914 261.098 280.187 269.543 279.525 289.673ZM86.9387 260.214C86.9387 260.214 120.059 259.723 122.073 182.494H165.677V330.276C129.506 328.405 95.1145 314.006 68.402 289.55C68.3529 269.837 86.9387 260.214 86.9387 260.214ZM121.999 164.966C119.544 87.5401 87.3561 87.5646 87.3561 87.5646C73.2878 87 70.1697 65.4709 69.6296 57.3699C96.1665 33.547 130.063 19.5295 165.677 17.6504V164.942L121.999 164.966ZM182.667 164.966V17.6749C218.179 19.6163 251.962 33.6301 278.42 57.3945C277.438 64.98 273.509 86.8527 258.999 87.4664C258.999 87.4664 226.885 87.4664 224.356 165.064L182.667 164.966ZM53.5971 73.8665L52.4186 75.3394C52.4186 75.3394 56.126 101.017 73.5333 101.606C73.5333 101.606 101.277 102.392 104.15 164.843L17.6775 164.696C19.6066 131.353 32.1985 99.5122 53.5971 73.8665ZM17.6039 182.297H104.297C102.333 246.124 73.116 245.633 73.116 245.633C73.116 245.633 52.3204 243.767 52.5659 272.636C31.6008 247.006 19.3538 215.361 17.6039 182.297ZM295.925 272.194C295.925 243.718 278.592 242.859 278.592 242.859C278.592 242.859 246.478 245.485 244.219 182.592H330.519C328.715 215.357 316.608 246.716 295.925 272.194Z" fill="#10324D"/>
</g>
<defs>
<clipPath id="clip0_135_973">
<rect width="348" height="348" fill="white"/>
</clipPath>
</defs>
</svg>
