<svg width="348" height="348" viewBox="0 0 348 348" fill="none" xmlns="http://www.w3.org/2000/svg">
<g clip-path="url(#clip0_134_948)">
<path d="M174 1.7325e-06C139.581 -0.00485366 105.932 10.1959 77.3108 29.3124C48.6894 48.4288 26.3804 75.6022 13.2051 107.396C0.0298567 139.19 -3.41991 174.176 3.29209 207.931C10.0041 241.685 26.5764 272.691 50.9132 297.028C75.25 321.365 106.258 337.939 140.016 344.655C173.774 351.371 208.766 347.926 240.566 334.757C272.367 321.588 299.547 299.286 318.67 270.672C337.793 242.057 348 208.415 348 174C348 127.857 329.669 83.6027 297.038 50.9721C264.408 18.3415 220.15 0.00651181 174 1.7325e-06ZM253.23 275.803L212.154 214.431L223.792 167.323L287.75 144.959L330.642 174.074C330.643 204.946 321.474 235.124 304.298 260.779L253.23 275.803ZM296.736 76.7633L281.538 129.15L217.703 151.464L182.667 127.235V62.5988L226.272 26.4633L225.682 26.1933C253.672 35.9941 278.31 53.5288 296.736 76.7633ZM121.631 26.4388L165.628 62.2551V127.112L131.255 150.458L66.8309 127.898L52.0997 75.8059C70.2743 53.2477 94.3402 36.1609 121.631 26.4388ZM44.194 261.54C26.9806 236.126 17.6695 206.19 17.4323 175.497L62.1415 144.321L124.16 166.022L136.436 214.775L95.434 275.975L44.194 261.54ZM139.603 326.643L109.551 285.475L149.08 226.558H199.706L238.989 285.303L208.913 326.495C186.103 331.7 162.413 331.7 139.603 326.495V326.643Z" fill="#F29200"/>
</g>
<defs>
<clipPath id="clip0_134_948">
<rect width="348" height="348" fill="white"/>
</clipPath>
</defs>
</svg>
