<svg width="348" height="348" viewBox="0 0 348 348" fill="none" xmlns="http://www.w3.org/2000/svg">
<g clip-path="url(#clip0_135_963)">
<path d="M174 0C139.585 3.42629e-07 105.943 10.2063 77.3283 29.3281C48.7136 48.4499 26.4116 75.6283 13.2427 107.426C0.0737642 139.224 -3.37058 174.214 3.34524 207.969C10.0611 241.725 26.6354 272.731 50.9722 297.066C75.309 321.401 106.315 337.972 140.069 344.684C173.824 351.396 208.81 347.946 240.604 334.772C272.398 321.597 299.571 299.29 318.688 270.67C337.804 242.051 348.005 208.405 348 173.988C347.994 127.841 329.659 83.5867 297.028 50.9583C264.397 18.33 220.143 -4.59394e-07 174 0ZM277.855 225.673L243.482 156.211L250.848 74.3733L297.177 76.2884C311.771 94.6217 322.061 115.999 327.288 138.841C332.515 161.684 332.545 185.409 327.376 208.265L277.855 225.673ZM208.864 225.673H138.94L104.763 156.235L173.877 104.157L243.065 156.26L208.864 225.673ZM240.904 31.9198L250.43 74.1523L173.877 104.132L97.3242 74.1277L106.777 31.9198C127.754 22.0401 150.654 16.9172 173.84 16.9172C197.027 16.9172 219.927 22.0401 240.904 31.9198ZM51.0191 76.2884L97.1032 74.3733L104.469 156.26L69.8505 225.894L20.8693 208.707C15.6101 185.788 15.5898 161.979 20.8101 139.051C26.0303 116.124 36.3564 94.6702 51.0191 76.2884ZM52.6396 273.332L69.826 226.312H138.964L173.607 295.062L140.192 326.982C105.824 319.408 74.9927 300.516 52.6396 273.332ZM207.317 327.08L174.319 295.087L209.281 226.336H277.438L294.968 273.921C272.5 300.973 241.598 319.694 207.219 327.08H207.317Z" fill="#10324D"/>
</g>
<defs>
<clipPath id="clip0_135_963">
<rect width="348" height="348" fill="white"/>
</clipPath>
</defs>
</svg>
