<svg width="24" height="24" viewBox="0 0 24 24" fill="none" xmlns="http://www.w3.org/2000/svg">
<path d="M14.3912 23.9933V15.6H17.4744L17.9823 12.0009L14.3912 11.9857L14.3811 9.53955C14.3811 9.53955 14.4217 7.183 15.5984 7.183H18.2126L18.2329 3.78848C18.2329 3.78848 18.0534 3.60759 15.5984 3.589C13.1434 3.5704 10.7696 3.59914 10.7696 7.16271C10.7696 10.7263 10.7883 11.9857 10.7883 11.9857L7.1582 12.0026V15.5966L10.7713 15.6118V24.0001L14.3912 23.9933Z" fill="white"/>
<path d="M22.0631 0H1.93693C1.42422 0.00133407 0.932844 0.205052 0.569985 0.566715C0.207127 0.928378 0.00223327 1.41864 0 1.93055L0 22.017C0.00223327 22.529 0.207127 23.0192 0.569985 23.3809C0.932844 23.7425 1.42422 23.9463 1.93693 23.9476H22.0631C22.5758 23.9463 23.0672 23.7425 23.43 23.3809C23.7929 23.0192 23.9978 22.529 24 22.017V1.93055C23.9978 1.41864 23.7929 0.928378 23.43 0.566715C23.0672 0.205052 22.5758 0.00133407 22.0631 0ZM22.8402 21.4338C22.8402 22.3906 22.5778 22.6797 21.6178 22.6797L2.41608 22.6949C1.45608 22.6949 1.20381 22.3754 1.20381 21.4186L1.18519 2.53575C1.18519 1.58062 1.42222 1.2983 2.38222 1.2983L21.6313 1.26449C22.5913 1.26449 22.8436 1.56709 22.8436 2.52391L22.8402 21.4338Z" fill="white"/>
</svg>
