<svg width="24" height="24" viewBox="0 0 24 24" fill="none" xmlns="http://www.w3.org/2000/svg">
<path d="M19.1965 4.79776C19.8632 4.79776 20.4036 4.25694 20.4036 3.5898C20.4036 2.92266 19.8632 2.38184 19.1965 2.38184C18.5297 2.38184 17.9893 2.92266 17.9893 3.5898C17.9893 4.25694 18.5297 4.79776 19.1965 4.79776Z" fill="white"/>
<path d="M22.0631 0H1.93693C1.42422 0.00133699 0.932844 0.205501 0.569985 0.567955C0.207127 0.930409 0.00223327 1.42174 0 1.93477L0 22.0652C0.00223327 22.5783 0.207127 23.0696 0.569985 23.432C0.932844 23.7945 1.42422 23.9987 1.93693 24H22.0631C22.5758 23.9987 23.0672 23.7945 23.43 23.432C23.7929 23.0696 23.9978 22.5783 24 22.0652V1.93477C23.9978 1.42174 23.7929 0.930409 23.43 0.567955C23.0672 0.205501 22.5758 0.00133699 22.0631 0ZM22.8402 21.4807C22.8402 22.4396 22.5778 22.7294 21.6178 22.7294L2.41608 22.7446C1.45608 22.7446 1.20381 22.4244 1.20381 21.4655L1.18519 2.5413C1.18519 1.58407 1.42222 1.30114 2.38222 1.30114L21.6313 1.26726C22.5913 1.26726 22.8436 1.57052 22.8436 2.52944L22.8402 21.4807Z" fill="white"/>
<path d="M12.0009 5.98877C10.8138 5.9891 9.65346 6.34167 8.6666 7.00189C7.67975 7.66211 6.9107 8.60033 6.45673 9.69789C6.00275 10.7955 5.88423 12.0031 6.11615 13.1681C6.34807 14.333 6.92002 15.403 7.75967 16.2427C8.59932 17.0824 9.66895 17.6541 10.8333 17.8856C11.9977 18.117 13.2045 17.9977 14.3011 17.5428C15.3977 17.0879 16.3349 16.3179 16.9941 15.33C17.6534 14.3421 18.0051 13.1809 18.0047 11.993C18.0038 10.4003 17.3709 8.87308 16.2451 7.74716C15.1192 6.62125 13.5926 5.98877 12.0009 5.98877ZM12.0009 16.7961C11.0518 16.7964 10.1238 16.515 9.33448 15.9876C8.54514 15.4601 7.92987 14.7103 7.56649 13.8329C7.20311 12.9555 7.10794 11.9899 7.29303 11.0584C7.47812 10.1269 7.93515 9.27121 8.60631 8.59963C9.27746 7.92805 10.1326 7.47073 11.0635 7.28552C11.9945 7.10031 12.9594 7.19554 13.8362 7.55915C14.7131 7.92276 15.4625 8.53843 15.9896 9.32827C16.5167 10.1181 16.7979 11.0466 16.7975 11.9964C16.7973 12.6269 16.673 13.2512 16.4316 13.8337C16.1903 14.4161 15.8367 14.9453 15.3909 15.391C14.9452 15.8367 14.4161 16.1901 13.8339 16.4312C13.2516 16.6723 12.6277 16.7963 11.9975 16.7961H12.0009Z" fill="white"/>
</svg>
