<svg width="200" height="200" viewBox="0 0 200 200" fill="none" xmlns="http://www.w3.org/2000/svg">
<g clip-path="url(#clip0_388_1448)">
<path d="M100 0C80.2213 1.96913e-07 60.8868 5.86567 44.4416 16.8552C27.9963 27.8448 15.1791 43.4646 7.61074 61.7393C0.0423932 80.014 -1.93712 100.123 1.92255 119.523C5.78221 138.923 15.3077 156.742 29.2944 170.728C43.281 184.713 61.1006 194.237 80.4997 198.094C99.8987 201.951 120.006 199.969 138.278 192.397C156.551 184.826 172.167 172.006 183.154 155.558C194.14 139.11 200.003 119.773 200 99.993C199.996 73.4719 189.459 48.0383 170.706 29.2864C151.952 10.5345 126.519 -2.6402e-07 100 0ZM159.687 129.697L139.932 89.7763L144.165 42.7433L170.792 43.8439C179.179 54.3803 185.093 66.6659 188.096 79.7939C191.1 92.9218 191.118 106.557 188.147 119.692L159.687 129.697ZM120.037 129.697H79.8505L60.2089 89.7905L99.9295 59.8603L139.692 89.8046L120.037 129.697ZM138.451 18.3447L143.926 42.6162L99.9295 59.8462L55.9334 42.6021L61.3659 18.3447C73.4216 12.6667 86.5827 9.72251 99.9083 9.72251C113.234 9.72251 126.395 12.6667 138.451 18.3447ZM29.3213 43.8439L55.8064 42.7433L60.0395 89.8046L40.144 129.824L11.9938 119.946C8.97131 106.775 8.95968 93.0911 11.9598 79.9145C14.9599 66.7379 20.8945 54.4082 29.3213 43.8439ZM30.2526 157.087L40.1299 130.064H79.8646L99.7743 169.576L80.5701 187.921C60.8183 183.568 43.0993 172.71 30.2526 157.087ZM119.148 187.977L100.183 169.59L120.277 130.078H159.447L169.522 157.426C156.609 172.973 138.85 183.732 119.091 187.977H119.148Z" fill="#F29200"/>
</g>
<defs>
<clipPath id="clip0_388_1448">
<rect width="200" height="200" fill="white"/>
</clipPath>
</defs>
</svg>
